<?xml version="1.0" encoding="UTF-8" standalone="no"?>
<!-- Created with Inkscape (http://www.inkscape.org/) -->

<svg
   xmlns:dc="http://purl.org/dc/elements/1.1/"
   xmlns:cc="http://creativecommons.org/ns#"
   xmlns:rdf="http://www.w3.org/1999/02/22-rdf-syntax-ns#"
   xmlns:svg="http://www.w3.org/2000/svg"
   xmlns="http://www.w3.org/2000/svg"
   xmlns:sodipodi="http://sodipodi.sourceforge.net/DTD/sodipodi-0.dtd"
   xmlns:inkscape="http://www.inkscape.org/namespaces/inkscape"
   version="1.1"
   id="svg3713"
   width="241"
   height="209"
   viewBox="0 0 241 209"
   sodipodi:docname="Фон.svg"
   inkscape:version="0.92.4 (5da689c313, 2019-01-14)">
  <metadata
     id="metadata3719">
    <rdf:RDF>
      <cc:Work
         rdf:about="">
        <dc:format>image/svg+xml</dc:format>
        <dc:type
           rdf:resource="http://purl.org/dc/dcmitype/StillImage" />
        <dc:title></dc:title>
      </cc:Work>
    </rdf:RDF>
  </metadata>
  <defs
     id="defs3717" />
  <sodipodi:namedview
     pagecolor="#ffffff"
     bordercolor="#666666"
     borderopacity="1"
     objecttolerance="10"
     gridtolerance="10"
     guidetolerance="10"
     inkscape:pageopacity="0"
     inkscape:pageshadow="2"
     inkscape:window-width="1920"
     inkscape:window-height="1001"
     id="namedview3715"
     showgrid="false"
     inkscape:zoom="3.8660287"
     inkscape:cx="154.81975"
     inkscape:cy="94.556604"
     inkscape:window-x="-9"
     inkscape:window-y="-9"
     inkscape:window-maximized="1"
     inkscape:current-layer="svg3713" />
  <g
     id="g3723"
     transform="translate(-2.4804843,4.6407119)">
    <path
       style="fill:#accbf9"
       d="M 57.46825,165.55916 55,163.09091 V 103.10122 43.111527 L 57.413416,40.305764 59.826833,37.5 H 120.5 181.17317 l 2.41341,2.805764 L 186,43.111527 v 59.989693 59.98969 l -2.47719,2.47719 -2.47719,2.47719 -18.27281,-0.27264 L 144.5,167.5 l -0.26712,-25.22665 -0.26712,-25.22665 2.26712,-0.51595 C 147.4798,116.24698 151.2,115.89897 154.5,115.7574 l 6,-0.2574 1.1491,-7.5 c 0.63201,-4.125 0.85448,-7.81752 0.49439,-8.205609 -0.36009,-0.388085 -4.47718,-0.838085 -9.1491,-1 L 144.5,98.5 144.21252,89.849341 c -0.26432,-7.953616 -0.0902,-8.880249 2.16143,-11.5 2.17573,-2.531486 3.26756,-2.905118 9.78748,-3.349341 L 163.5,74.5 V 67 59.5 l -8.8695,-0.290676 c -10.99943,-0.360479 -16.87388,1.4002 -21.88674,6.559854 C 127.68125,70.979925 126.77398,73.877021 126.09501,87 L 125.5,98.5 l -8,0.5 -8,0.5 v 8.5 8.5 l 8,0.5 8,0.5 v 25 25 l -32.78175,0.26371 -32.781749,0.2637 z"
       id="path3737"
       inkscape:connector-curvature="0" />
    <path
       style="fill:#76a8f3"
       d="M 58.013835,165.01383 C 56.04014,163.04014 56,161.80406 56,103 c 0,-58.409029 0.05236,-60.052358 1.974564,-61.974564 1.08601,-1.08601 2.99851,-2.226513 4.25,-2.53445 1.25149,-0.307938 28.527881,-0.431884 60.614206,-0.275436 l 58.33876,0.28445 1.91124,2.360784 C 184.92286,43.126279 185,45.638898 185,103.11078 c 0,58.78266 -0.0374,59.9266 -2.02298,61.9122 -1.90101,1.90101 -3.09178,2.00652 -19.75,1.75 L 145.5,166.5 V 142 117.5 l 8,-0.5 8,-0.5 1.20461,-8.49539 c 0.66253,-4.67247 0.885,-8.814996 0.49439,-9.205614 -0.39062,-0.390617 -4.53269,-0.84269 -9.20461,-1.004605 L 145.5,97.5 145.2121,89.407584 C 144.81213,78.164721 145.96717,76.81246 156.61432,76.058449 L 164.5,75.5 V 67 58.5 l -9.92557,-0.28833 c -10.82885,-0.314569 -15.2729,0.828056 -21.44327,5.51336 -5.3044,4.027754 -7.42505,10.010471 -8.07288,22.77497 l -0.55828,11 -8,0.5 -8,0.5 v 9.5 9.5 l 8,0.5 8,0.5 v 24 24 l -32.236165,0.26383 c -31.160739,0.25504 -32.303349,0.19666 -34.25,-1.75 z"
       id="path3735"
       inkscape:connector-curvature="0" />
    <path
       style="fill:#619efd"
       d="M 58.860784,165.08835 56.5,163.17671 V 103 42.823294 l 2.360784,-1.911647 C 61.126312,39.077134 63.631805,39 120.9558,39 c 59.45733,0 59.74306,0.0098 61.63921,2.104988 1.82875,2.020745 1.90499,4.505548 1.90499,62.088352 v 59.98337 l -2.36078,1.91164 C 180.03104,166.79545 178.03786,167 163.51166,167 c -12.58485,0 -16.52515,-0.31133 -17.40831,-1.37547 -0.8001,-0.96406 -1.06105,-8.21726 -0.87244,-24.25 L 145.5,118.5 153.17057,118 c 4.21881,-0.275 7.92107,-0.75226 8.22724,-1.06058 0.61497,-0.61928 2.55106,-13.13184 2.58238,-16.68942 0.019,-2.15586 -0.33071,-2.25 -8.35775,-2.25 -10.45983,0 -10.98906,-0.506011 -10.45292,-9.994377 0.54324,-9.613911 2.12223,-11.132191 12.2535,-11.782377 L 165,75.736986 V 66.868493 58 l -11.25,0.02196 c -12.19349,0.0238 -16.69149,1.298071 -21.90327,6.205115 -5.00446,4.711848 -6.22362,8.424514 -6.65717,20.272923 -0.22138,6.05 -0.85969,11.5625 -1.41848,12.25 -0.64635,0.795237 -3.7,1.25 -8.39352,1.25 L 108,98 v 10 10 h 7.3 c 4.34444,0 7.78584,0.48584 8.5,1.2 1.70118,1.70118 1.70118,44.89882 0,46.6 -0.8812,0.8812 -9.35316,1.2 -31.889216,1.2 -28.72645,0 -30.840203,-0.12226 -33.05,-1.91165 z"
       id="path3733"
       inkscape:connector-curvature="0" />
    <path
       style="fill:#5a99f6"
       d="m 60.409037,166.02767 c -4.362823,-1.76427 -4.471405,-3.44848 -4.182922,-64.88121 L 56.5,42.822465 58.860784,40.911233 C 61.125674,39.077634 63.629442,39 120.5,39 c 56.87522,0 59.37414,0.0775 61.63922,1.911647 L 184.5,42.823294 v 60.052636 c 0,56.10427 -0.1163,60.16894 -1.76891,61.82156 -1.50038,1.50037 -4.05951,1.82178 -16.85728,2.11719 -8.2986,0.19156 -16.16509,0.078 -17.48109,-0.25225 L 146,165.9619 V 141.98095 118 h 7.46482 c 8.90799,0 9.01149,-0.11691 10.05886,-11.36189 0.5772,-6.19708 0.44047,-8.046713 -0.64571,-8.734689 -0.75788,-0.480037 -4.86547,-0.879686 -9.12797,-0.888108 L 146,97 V 89 C 146,78.485554 147.29102,77 156.42857,77 164.95987,77 166,75.913298 166,67 c 0,-9.426239 -0.7124,-10 -12.41627,-10 -8.48177,0 -9.8202,0.277444 -15.67857,3.25 C 127.86745,65.343167 124,73.250843 124,88.681501 V 97 h -6.92857 C 107.8848,97 107,97.921543 107,107.48964 107,117.90777 107.06603,118 114.5252,118 124.78309,118 124,115.97508 124,142.5 c 0,20.31132 -0.20207,23.36356 -1.58179,23.89301 -2.4284,0.93187 -59.634811,0.59482 -62.009173,-0.36534 z"
       id="path3731"
       inkscape:connector-curvature="0" />
    <path
       style="fill:#3582f5"
       d="M 58.654988,164.17126 C 57.153973,162.51266 57,156.79772 57,102.74384 V 43.14516 l 2.634859,-2.07258 C 62.231604,39.02998 63.107682,39 120.2006,39 c 57.91913,0 60.87033,0.159171 63.03409,3.399704 0.40408,0.605163 0.74158,27.918052 0.75,60.695306 0.0145,56.47562 -0.0804,59.68164 -1.81343,61.25 C 180.61889,165.74988 177.74471,166 163.15316,166 H 145.9638 l 0.2681,-23.75 0.2681,-23.75 7.74147,-0.29191 c 8.79403,-0.3316 8.05432,0.55604 9.71832,-11.66175 0.6553,-4.81149 0.61562,-7.353013 -0.12881,-8.249999 C 163.10644,97.423328 160.01937,97 154.37756,97 H 146 l 0.0153,-7.75 c 0.008,-4.2625 0.34592,-8.245133 0.75,-8.850296 C 148.2564,78.166594 152.02035,77 157.73426,77 c 3.22891,0 6.40518,-0.539437 7.06574,-1.2 0.72281,-0.722807 1.2,-4.222222 1.2,-8.8 0,-4.577778 -0.47719,-8.077193 -1.2,-8.8 -0.76959,-0.769592 -4.70477,-1.2 -10.97149,-1.2 -8.06484,0 -10.6937,0.407846 -15.05166,2.335144 C 128.33378,63.953564 124,72.413682 124,88.181501 V 97 h -7.3 c -4.34444,0 -7.78584,0.485845 -8.5,1.2 -0.74729,0.747287 -1.2,4.44444 -1.2,9.8 0,5.35556 0.45271,9.05271 1.2,9.8 0.71416,0.71416 4.15556,1.2 8.5,1.2 H 124 V 142.5 166 H 92.154988 c -29.580939,0 -31.962677,-0.13002 -33.5,-1.82874 z"
       id="path3729"
       inkscape:connector-curvature="0" />
    <path
       style="fill:#2479fa"
       d="M 59.46021,164.59493 C 57.556681,163.20339 57.492105,161.4398 57.226977,103.604 56.958182,44.968243 56.985279,44.014721 58.976977,42.023023 60.962676,40.037324 62.105942,40 120.9433,40 h 59.94329 l 1.55671,2.222506 C 183.80937,44.17285 184,51.642752 184,103.22251 c 0,57.67715 -0.0379,58.81538 -2.02407,60.80156 -1.89484,1.89484 -3.09198,2.00657 -18.75,1.75 L 146.5,165.5 v -23 -23 l 7.16245,-0.29204 c 4.36864,-0.17813 7.58738,-0.80406 8.25184,-1.60468 1.30618,-1.57385 3.5197,-17.02994 2.73265,-19.080951 -0.41192,-1.073439 -2.8071,-1.517291 -9.35035,-1.732717 L 146.5,96.5 v -7.715934 c 0,-9.980856 0.78933,-10.805472 11.1482,-11.646548 L 165.5,76.5 V 67 57.5 L 155,57.190414 C 143.08024,56.838968 139.06721,57.719893 133.18853,61.978392 126.59657,66.75358 124.71013,71.509448 124.05687,85 L 123.5,96.5 l -8,0.5 -8,0.5 v 10.5 10.5 l 8,0.5 8,0.5 v 23 23 l -31.03979,0.26395 c -25.672613,0.21831 -31.378735,0.0162 -33,-1.16902 z"
       id="path3727"
       inkscape:connector-curvature="0" />
    <path
       style="fill:#0165fd"
       d="M 59.2,163.8 C 58.293448,162.89345 58,147.99038 58,102.8567 V 43.113408 l 2.222506,-1.556704 C 62.172089,40.191163 69.574171,40 120.5,40 c 50.92583,0 58.32791,0.191163 60.27749,1.556704 L 183,43.113408 V 102.8567 c 0,45.13368 -0.29345,60.03675 -1.2,60.9433 -0.8381,0.8381 -6.26667,1.2 -18,1.2 H 147 v -23 -23 h 7.37756 c 4.71584,0 7.729,-0.45098 8.35168,-1.25 0.53578,-0.6875 1.51328,-5.22689 2.17224,-10.08754 C 166.45539,96.200459 166.29169,96 155.37756,96 H 147 v -7 c 0,-9.499115 1.4736,-11 10.8,-11 3.95556,0 7.30196,-0.501961 8,-1.2 1.62069,-1.620693 1.62069,-17.979307 0,-19.6 -1.9433,-1.943298 -20.29399,-1.562989 -26.3,0.545054 C 128.31878,61.669542 123,71.136896 123,87.114835 V 96 h -7.3 c -4.34444,0 -7.78584,0.485845 -8.5,1.2 -0.76667,0.766667 -1.2,4.66667 -1.2,10.8 0,6.13333 0.43333,10.03333 1.2,10.8 0.71416,0.71416 4.15556,1.2 8.5,1.2 H 123 V 142.5 165 H 91.7 c -23.011111,0 -31.617785,-0.31778 -32.5,-1.2 z"
       id="path3725"
       inkscape:connector-curvature="0" />
  </g>
</svg>
